<?xml version="1.0" encoding="utf-8"?>
<!-- Generator: Adobe Illustrator 18.1.1, SVG Export Plug-In . SVG Version: 6.00 Build 0)  -->
<svg version="1.1" id="图层_1" xmlns:sketch="http://www.bohemiancoding.com/sketch/ns"
	 xmlns="http://www.w3.org/2000/svg" xmlns:xlink="http://www.w3.org/1999/xlink" x="0px" y="0px" viewBox="-2212 2816.3 110 38"
	 enable-background="new -2212 2816.3 110 38" xml:space="preserve">
<title>标志</title>
<desc>Created with Sketch.</desc>
<g id="首页" sketch:type="MSPage">
	<g id="首页-copy" transform="translate(-401.000000, -8.000000)" sketch:type="MSArtboardGroup">
		<g id="顶栏" sketch:type="MSLayerGroup">
			<g id="标志" transform="translate(401.000000, 8.000000)" sketch:type="MSShapeGroup">
				<path id="Fill-6" fill="#426879" d="M-2121.3,2842h1.6v9h-1.6V2842z M-2115.6,2831.3h-10.6v2.5h2.9c-1,4.3-2.2,8.5-3.8,12.6h2.4
					v7.1h8.1v-14h-4.9c0.5-1.9,1-3.8,1.4-5.8h4.3V2831.3L-2115.6,2831.3z M-2111.2,2841.1l1-7.4h3.3l-1,7.4H-2111.2L-2111.2,2841.1z
					 M-2103.3,2831.3h-10.6v2.5h0.5l-1.3,9.9h9v0.8c0,0.5,0,1.1,0,1.6h-8.9v2.5h8.8c-0.1,0.8-0.1,1.6-0.2,2.5h-2.9v2.5h5.8
					c0.5-2.9,0.7-6,0.7-9v-3.3h-2.1L-2103.3,2831.3z M-2150.6,2846.1h3.3v4.9h-3.3V2846.1z M-2150.6,2839.5h3.3v4.1h-3.3V2839.5z
					 M-2144.1,2837h-9.8v16.4l9.8,0V2837L-2144.1,2837z M-2139.2,2846.9c0-0.8,0.1-1.6,0.1-2.5h4.9v2.5H-2139.2L-2139.2,2846.9z
					 M-2139.2,2839.5h4.9v2.5h-4.9V2839.5z M-2131,2837h-11.4v7.4c0,3-0.2,6.1-0.7,9h3.3c0.2-1.4,0.4-2.7,0.5-4.1h5.1v4.1h3.3V2837
					L-2131,2837z M-2135.3,2830.5h-3.1c0,0.5,0,1.1-0.1,1.6h-7.9c0-0.6,0-1.2-0.1-1.6h-3.1c0,0.5,0,1.1,0,1.6h-5.2v2.5h5.3
					c0,0.6,0.1,1.2,0.1,1.6h3.1c0-0.5-0.1-1.1-0.1-1.6h7.7c0,0.6-0.1,1.2-0.1,1.6h3.1c0-0.5,0.1-1.1,0.1-1.6h5.3v-2.5h-5.2
					C-2135.4,2831.5-2135.3,2830.9-2135.3,2830.5L-2135.3,2830.5z"/>
				<path id="Fill-1" fill="#F09E46" d="M-2178.3,2823.3c6,0.9,10.6,6.1,10.6,12.4l0,5.9c0,6.9-5.6,12.6-12.5,12.6v-3.8
					c3.7-0.5,6.6-3.8,6.6-7.7v-7.1c0-3.7-2.9-6.6-6.6-6.6c-3.6,0-6.6,3-6.6,6.6v18.5h-2.9h-2.9v-12.6c0-3.7-2.9-6.6-6.6-6.6
					c-3.6,0-6.6,3-6.6,6.6v12.6h-5.9v-12.6c0-6.9,5.6-12.6,12.5-12.6c2.7,0,5.3,0.9,7.3,2.4l0,0c1-2.9,3.1-5.3,5.8-6.8l0,0
					c-0.6-1.3-1.3-2.6-2-3.8c0-0.1-0.1-0.2-0.1-0.3c-0.1-0.4,0.2-0.7,0.6-0.8c0.1,0,0.2,0,0.3,0c1,0.2,1.9,0.6,2.8,1.1
					c0.1-1.2,0.3-2.4,0.5-3.6l0,0c0.1-0.3,0.3-0.5,0.6-0.5c0.3-0.1,0.6,0.1,0.7,0.3l0,0c0.6,1,1.2,2.1,1.7,3.2
					c0.7-0.8,1.4-1.4,2.3-2c0.1-0.1,0.2-0.1,0.3-0.1c0.4-0.1,0.7,0.2,0.8,0.6c0,0.1,0,0.2,0,0.3
					C-2178,2820.5-2178.2,2821.9-2178.3,2823.3z"/>
			</g>
		</g>
	</g>
</g>
</svg>
