<svg xmlns="http://www.w3.org/2000/svg" fill="none" stroke="currentColor" viewBox="0 0 24 24">
    <path strokeLinecap="round" strokeLinejoin="round" strokeWidth="2" d="M12 4c-4.97 0-9 3.185-9 7.115 0 2.557 1.707 4.81 4.33 6.09.28.145.45.39.45.68 0 .08-.05.19-.05.27-.25.76-.7 2.01-.75 2.09-.05.115-.1.19-.1.305 0 .23.25.42.55.42.1 0 .2-.038.3-.076l3.55-1.562c.25-.115.55-.191.85-.191.15 0 .35 0 .5.038C13.65 19.277 15.4 19.5 17.2 19.5c4.97 0 9-3.185 9-7.115 0-3.93-4.03-7.115-9-7.115"/>
    <path strokeLinecap="round" strokeLinejoin="round" strokeWidth="2" d="M7 11h.01M11 11h.01M17 11h.01M13 11h.01"/>
</svg>