<?xml version="1.0" encoding="UTF-8"?>
<svg width="100%" height="100%" viewBox="0 0 24 24" xmlns="http://www.w3.org/2000/svg">
  <path fill="#3178C6" d="M3 3h18v18H3V3zm14.5 12.5v2.5c.4.2.8.3 1.3.4.4.1.9.2 1.4.2.5 0 .9-.1 1.3-.2.4-.1.7-.3 1-.6.3-.2.5-.5.6-.9.1-.3.2-.7.2-1.1 0-.3-.1-.6-.2-.9-.1-.3-.3-.5-.5-.7-.2-.2-.5-.4-.9-.6-.4-.2-.8-.4-1.3-.6-.4-.2-.7-.3-.9-.5-.2-.1-.4-.3-.5-.4-.1-.1-.2-.3-.2-.4 0-.2 0-.3.1-.4.1-.1.2-.2.3-.3.1-.1.3-.1.4-.2.2 0 .3-.1.5-.1.3 0 .5 0 .7.1.2.1.4.1.6.2.2.1.3.2.5.3.1.1.3.2.4.3v-2.3c-.3-.1-.7-.2-1.1-.3-.4-.1-.8-.1-1.3-.1-.5 0-.9.1-1.3.2-.4.1-.8.3-1 .6-.3.2-.5.5-.7.9-.2.3-.2.7-.2 1.1 0 .6.1 1 .4 1.4.3.4.7.7 1.3 1 .4.2.7.3.9.5.2.1.4.3.5.4.1.1.2.3.2.4 0 .1 0 .2-.1.3-.1.1-.2.2-.3.2-.1.1-.3.1-.4.1-.2 0-.3 0-.5.1-.3 0-.6-.1-.9-.2-.3-.1-.6-.2-.8-.4-.3-.1-.5-.3-.7-.5zm-5.3-3.1H8.7v7.5H6.4v-7.5H3V10h9.2v2.4z"/>
</svg> 