<svg id="Layer_1" data-name="Layer 1" xmlns="http://www.w3.org/2000/svg" xmlns:xlink="http://www.w3.org/1999/xlink" viewBox="0 0 213 72"><defs><linearGradient id="linear-gradient" x1="273.97" y1="408.09" x2="274.47" y2="408.33" gradientTransform="matrix(51.97, 0, 0, -36, -14018.09, 15051.11)" gradientUnits="userSpaceOnUse"><stop offset="0" stop-color="#ff8000"/><stop offset="1" stop-color="#ff6400"/></linearGradient><linearGradient id="linear-gradient-2" x1="274.08" y1="407.81" x2="274.86" y2="407.42" gradientTransform="matrix(61.44, 0, 0, -52.4, -16621.87, 21687.4)" gradientUnits="userSpaceOnUse"><stop offset="0" stop-color="#00c1ff"/><stop offset="0.4" stop-color="#09b2ff"/><stop offset="1" stop-color="#2c78ff"/></linearGradient></defs><title>Youku logo - Brandlogos.net</title><g id="编组"><path id="形状结合" d="M416.48,331.07h-8.23v-8.12H415a3.52,3.52,0,0,0,0-7h-6.75v-5.44h0a3.59,3.59,0,0,0-7.17,0h0v5.44h-3.6c.22-.88.64-3,.64-3.27a3.38,3.38,0,0,0-6.66-.8,84,84,0,0,1-2.91,10.88,6.43,6.43,0,0,0-.18,1.11,3.27,3.27,0,0,0,6.35,1.07s.28-.76.67-1.94h5.69v8.12h-9.13a3.52,3.52,0,0,0,0,7h24.54a3.52,3.52,0,0,0,0-7m-45.81-8.4h1.71v-6.39h-1.71Zm-6,41.25a1.57,1.57,0,0,1-1.57-1.57V358H380v4.35a1.57,1.57,0,0,1-1.57,1.57Zm.13-30.16a24.29,24.29,0,0,1-1.7,8.69V330.61a1.57,1.57,0,0,1,1.57-1.57h.13Zm7.61,10.66A3.81,3.81,0,0,0,376.2,348H380v3.62H363.1V349a19.81,19.81,0,0,0,7.57-15.28V329h1.71Zm6-15.38a1.57,1.57,0,0,1,1.57,1.57V342.4h-.89a.88.88,0,0,1-.88-.88V329Zm2.38-6.36h-2.58v-6.39h4.36a3.52,3.52,0,0,0,0-7H360.19a3.52,3.52,0,0,0,0,7h4.61v6.39h-2.51a5.62,5.62,0,0,0-5.61,5.55h0v36.52a5.61,5.61,0,0,0,5.43,5.53l18.72,0a5.6,5.6,0,0,0,5.57-5.14l0-36.9a5.62,5.62,0,0,0-5.61-5.57Zm30.87,39.81a1.42,1.42,0,0,1-1.42,1.42h-12a1.42,1.42,0,0,1-1.42-1.42V349.67a1.42,1.42,0,0,1,1.42-1.42h12a1.42,1.42,0,0,1,1.42,1.42Zm1.56-20.6H395.35a5.06,5.06,0,0,0-4.89,4.8v18.77a5.06,5.06,0,0,0,4.89,4.81h17.91a5.06,5.06,0,0,0,4.89-4.81V346.7a5.06,5.06,0,0,0-4.89-4.8ZM301.5,307.63a3.71,3.71,0,0,1,3.79,3.72c-.06,2.33-3.84,10.51-5.84,14.09v41.91a3.75,3.75,0,1,1-7.5,0V336.57c-1.11,1.38-1.83,2.16-1.83,2.16a4.36,4.36,0,0,1-3.05,1.63,3.83,3.83,0,0,1-3.79-3.72,3.89,3.89,0,0,1,1-2.6,66.36,66.36,0,0,0,13.65-23.7S298.82,307.6,301.5,307.63Zm17.79-.65a4.1,4.1,0,0,1,4.1,4.1v13.3H343.3a3.49,3.49,0,0,1,0,7h-9.65v28.82a2.4,2.4,0,0,0,2.39,2.36h3.4a2.4,2.4,0,0,0,2.4-2.4l.44-4.14a3.53,3.53,0,0,1,7,.6c0,.07-.15,5.56-1.31,8.2l-.14.27a10.09,10.09,0,0,1-8.26,5.21h-5.5a7.93,7.93,0,0,1-7.93-7.93v-31h-2.82c-.5,22-12.47,35-14.38,36.88l-.11.11-.13.13,0,0,0,0a5.46,5.46,0,0,1-3.14,1.48,4.22,4.22,0,0,1-4.1-4.1,4.81,4.81,0,0,1,1.4-3.08l.06-.06a49.16,49.16,0,0,0,12.24-31.39h-9a3.49,3.49,0,0,1,0-7h9.11v-13.3A4.1,4.1,0,0,1,319.29,307Zm12.7.64a3.41,3.41,0,0,1,2.55,1.15h0l5.34,5.08.42.4,1,1,0,0,0,0a3.36,3.36,0,0,1-4.64,4.86h0s-2.67-2.34-5.49-5l-.42-.4-1.27-1.23h0a3.44,3.44,0,0,1,2.44-5.85Z" transform="translate(-207 -303)" style="fill:#4d4d4d"/></g><g id="Group"><path id="Path" d="M214.1,348.5a14.2,14.2,0,1,0,14.2,24.6L259,355.39,230.57,339Z" transform="translate(-207 -303)" style="fill:url(#linear-gradient)"/><path id="Path-2" data-name="Path" d="M259,322.6l-30.67-17.7a14.2,14.2,0,1,0-14.2,24.6l16.46,9.5L259,355.4h0a18.93,18.93,0,0,0,0-32.79Z" transform="translate(-207 -303)" style="fill:url(#linear-gradient-2)"/></g></svg>