<?xml version="1.0" encoding="UTF-8"?>
<svg width="24" height="24" viewBox="0 0 24 24" fill="none" xmlns="http://www.w3.org/2000/svg">
    <circle cx="12" cy="7" r="3" stroke="currentColor" stroke-width="2"/>
    <circle cx="5" cy="15" r="2" stroke="currentColor" stroke-width="2"/>
    <circle cx="19" cy="15" r="2" stroke="currentColor" stroke-width="2"/>
    <path d="M12 10C9.79086 10 8 11.7909 8 14V17H16V14C16 11.7909 14.2091 10 12 10Z" stroke="currentColor" stroke-width="2"/>
    <path d="M5 17C3.89543 17 3 17.8954 3 19V20H7V19C7 17.8954 6.10457 17 5 17Z" stroke="currentColor" stroke-width="2"/>
    <path d="M19 17C17.8954 17 17 17.8954 17 19V20H21V19C21 17.8954 20.1046 17 19 17Z" stroke="currentColor" stroke-width="2"/>
</svg> 